<?xml version="1.0" encoding="UTF-8"?>
<svg version="1.1" xmlns="http://www.w3.org/2000/svg" width="600" height="480">
<path d="M0 0 C198 0 396 0 600 0 C600 158.4 600 316.8 600 480 C402 480 204 480 0 480 C0 321.6 0 163.2 0 0 Z " fill="#020C21" transform="translate(0,0)"/>
<path d="M0 0 C2.31 0 4.62 0 7 0 C7.0093457 0.59200195 7.01869141 1.18400391 7.02832031 1.79394531 C7.28014709 14.60748405 8.33898167 26.72676023 11.16015625 39.23828125 C12 43 12 43 12 45 C14.64 45 17.28 45 20 45 C20 30.15 20 15.3 20 0 C22.31 0 24.62 0 27 0 C27 16.83 27 33.66 27 51 C20.07 51 13.14 51 6 51 C5.38125 48.545625 4.7625 46.09125 4.125 43.5625 C3.93437988 42.80912354 3.74375977 42.05574707 3.54736328 41.27954102 C3.20555245 39.9177205 2.87037393 38.55422862 2.53955078 37.18969727 C2.18867079 35.76569606 1.8182223 34.34632616 1.42529297 32.93334961 C-0.3427949 26.11907306 -0.22577278 19.44120838 -0.125 12.4375 C-0.11597656 11.23802734 -0.10695313 10.03855469 -0.09765625 8.80273438 C-0.07427412 5.86827691 -0.0415028 2.93424766 0 0 Z " fill="#45809B" transform="translate(340,212)"/>
<path d="M0 0 C6.93 0 13.86 0 21 0 C25.25761943 17.24589299 28.01604927 33.21132194 27 51 C24.69 51 22.38 51 20 51 C19.97421875 49.70449219 19.9484375 48.40898437 19.921875 47.07421875 C19.60206908 36.00159397 18.41650266 25.67975733 15.83984375 14.90625 C15.16114528 11.74951295 14.80345908 9.195375 15 6 C12.36 6 9.72 6 7 6 C7 20.85 7 35.7 7 51 C4.69 51 2.38 51 0 51 C0 34.17 0 17.34 0 0 Z " fill="#81D8E5" transform="translate(199,212)"/>
<path d="M0 0 C7.92 0 15.84 0 24 0 C24 4.62 24 9.24 24 14 C21.69 14.66 19.38 15.32 17 16 C17 13.03 17 10.06 17 7 C13.7 7 10.4 7 7 7 C7.69078909 12.98683879 9.92406519 16.54455607 13.8125 21.0625 C14.26077148 21.58851807 14.70904297 22.11453613 15.17089844 22.65649414 C16.97567163 24.74880858 18.79121737 26.79628715 20.76953125 28.7265625 C23.43772817 31.60237129 24.23826531 34.33274746 24.29296875 38.203125 C24.3086792 38.90469727 24.32438965 39.60626953 24.34057617 40.32910156 C24.30227257 43.88767277 24.13783361 47.44389285 24 51 C16.08 51 8.16 51 0 51 C0 46.05 0 41.1 0 36 C3.465 35.505 3.465 35.505 7 35 C7 37.97 7 40.94 7 44 C10.3 44 13.6 44 17 44 C16.61540206 38.24554407 14.93630681 34.8883455 11.3125 30.5625 C10.86277832 29.99249268 10.41305664 29.42248535 9.94970703 28.83520508 C8.0499956 26.43515672 6.13810638 24.14216039 4.00390625 21.9453125 C-0.20460445 17.40375419 -0.46818788 13.4813476 -0.375 7.5 C-0.25125 5.025 -0.1275 2.55 0 0 Z " fill="#7ED3E0" transform="translate(306,212)"/>
<path d="M0 0 C7.92 0 15.84 0 24 0 C24.09765625 10.83984375 24.09765625 10.83984375 24 14 C23 15 23 15 20.4375 15.0625 C19.633125 15.041875 18.82875 15.02125 18 15 C18 12.03 18 9.06 18 6 C14.37 6 10.74 6 7 6 C7.16971112 13.06186844 10.48666529 16.87507484 14.875 22.1875 C15.51308594 22.98091797 16.15117187 23.77433594 16.80859375 24.59179688 C17.99597588 26.06796819 19.18916212 27.53950452 20.39013672 29.00463867 C20.9213916 29.66310791 21.45264648 30.32157715 22 31 C22.55743896 31.66394775 23.11487793 32.32789551 23.68920898 33.01196289 C25.78093013 36.18441313 25.31260981 39.5904459 25.1875 43.25 C25.0946875 47.08625 25.0946875 47.08625 25 51 C16.75 51 8.5 51 0 51 C0 46.05 0 41.1 0 36 C3.465 35.505 3.465 35.505 7 35 C7 37.97 7 40.94 7 44 C10.3 44 13.6 44 17 44 C16.35540682 37.55406821 14.39878987 33.74287241 10.1875 28.875 C9.73922852 28.35357422 9.29095703 27.83214844 8.82910156 27.29492188 C7.01772559 25.21836996 5.18571849 23.18448857 3.23046875 21.2421875 C-1.96928877 15.51795876 -0.29458133 7.12886813 0 0 Z " fill="#3E7994" transform="translate(272,212)"/>
<path d="M0 0 C7.92 0 15.84 0 24 0 C24.09765625 10.83984375 24.09765625 10.83984375 24 14 C23 15 23 15 19.9375 15.0625 C18.968125 15.041875 17.99875 15.02125 17 15 C17 12.03 17 9.06 17 6 C13.7 6 10.4 6 7 6 C7.27300818 13.02801059 9.24912121 16.45604686 13.8125 21.6875 C14.34681641 22.32494141 14.88113281 22.96238281 15.43164062 23.61914062 C17.68118624 26.30033337 19.91283482 28.91154242 22.37109375 31.40625 C24.74401069 35.18470767 24.43833996 38.45776352 24.25 42.8125 C24.1675 45.514375 24.085 48.21625 24 51 C16.08 51 8.16 51 0 51 C0 46.05 0 41.1 0 36 C3.465 35.505 3.465 35.505 7 35 C7 37.97 7 40.94 7 44 C10.3 44 13.6 44 17 44 C16.76943101 37.21595078 13.99182734 33.82399904 9.625 28.8125 C8.45016614 27.423477 7.27567594 26.03416326 6.1015625 24.64453125 C5.57900879 24.03971924 5.05645508 23.43490723 4.51806641 22.81176758 C4.01710449 22.21388428 3.51614258 21.61600098 3 21 C2.44707275 20.3495874 1.89414551 19.6991748 1.32446289 19.02905273 C-0.1759832 16.73039698 -0.35456009 15.60064376 -0.29296875 12.890625 C-0.28547607 12.21032227 -0.2779834 11.53001953 -0.27026367 10.82910156 C-0.24295166 9.97799805 -0.21563965 9.12689453 -0.1875 8.25 C-0.125625 5.5275 -0.06375 2.805 0 0 Z " fill="#437D98" transform="translate(378,212)"/>
<path d="M0 0 C7.92 0 15.84 0 24 0 C24 1.98 24 3.96 24 6 C18.39 6 12.78 6 7 6 C7 11.61 7 17.22 7 23 C8.5675 22.505 10.135 22.01 11.75 21.5 C15.1479188 20.42697301 17.36638422 20 21 20 C21 22.31 21 24.62 21 27 C16.38 27.99 11.76 28.98 7 30 C7 34.62 7 39.24 7 44 C12.94 44 18.88 44 25 44 C25 46.31 25 48.62 25 51 C16.75 51 8.5 51 0 51 C0 34.17 0 17.34 0 0 Z " fill="#457F99" transform="translate(238,212)"/>
<path d="M0 0 C1.11375 1.3921875 1.11375 1.3921875 2.25 2.8125 C2.78753906 3.35003906 3.32507813 3.88757813 3.87890625 4.44140625 C5.96776109 8.05375636 5.56862441 11.47636954 5.4375 15.5625 C5.375625 18.285 5.31375 21.0075 5.25 23.8125 C-2.67 23.8125 -10.59 23.8125 -18.75 23.8125 C-18.75 18.8625 -18.75 13.9125 -18.75 8.8125 C-15.285 8.3175 -15.285 8.3175 -11.75 7.8125 C-11.75 10.7825 -11.75 13.7525 -11.75 16.8125 C-8.45 16.8125 -5.15 16.8125 -1.75 16.8125 C-1.88352979 10.53659964 -4.21803393 7.44846034 -8.25390625 2.73046875 C-9.75 0.8125 -9.75 0.8125 -9.75 -1.1875 C-3.49671192 -2.78147539 -3.49671192 -2.78147539 0 0 Z " fill="#417C98" transform="translate(324.75,239.1875)"/>
<path d="M0 0 C7.92 0 15.84 0 24 0 C24.09765625 10.83984375 24.09765625 10.83984375 24 14 C23 15 23 15 19.9375 15.0625 C18.968125 15.041875 17.99875 15.02125 17 15 C17 12.03 17 9.06 17 6 C13.7 6 10.4 6 7 6 C7.1233337 12.78335377 9.08693018 16.0158912 13.50390625 21.1171875 C15 23 15 23 15 25 C11.01812718 25.55885934 8.45161538 25.82212983 4.91015625 23.81640625 C1.28497805 20.48776615 -0.13884807 17.55791102 -0.43359375 12.68359375 C-0.54744066 8.42098796 -0.23447868 4.28761011 0 0 Z " fill="#81D9E6" transform="translate(378,212)"/>
<path d="M0 0 C7.92 0 15.84 0 24 0 C24.09765625 10.83984375 24.09765625 10.83984375 24 14 C23 15 23 15 20.4375 15.0625 C19.633125 15.041875 18.82875 15.02125 18 15 C18 12.03 18 9.06 18 6 C14.37 6 10.74 6 7 6 C7.1332859 12.26443733 9.43826507 15.30520648 13.50390625 19.984375 C15 22 15 22 15 25 C10.8648211 25.65292298 8.42004142 25.97943044 4.91015625 23.55859375 C0.23777117 18.52311944 -0.5819841 14.06024809 -0.4375 7.4375 C-0.293125 4.983125 -0.14875 2.52875 0 0 Z " fill="#82DAE7" transform="translate(272,212)"/>
<path d="M0 0 C7.92 0 15.84 0 24 0 C24 1.98 24 3.96 24 6 C18.39 6 12.78 6 7 6 C7 11.61 7 17.22 7 23 C8.98 22.34 10.96 21.68 13 21 C15.33212027 20.92477031 17.6685311 20.90674124 20 21 C20 22.65 20 24.3 20 26 C13.4 26 6.8 26 0 26 C0 17.42 0 8.84 0 0 Z " fill="#83DCE9" transform="translate(238,212)"/>
<path d="M0 0 C0.33 0 0.66 0 1 0 C2.30433619 5.93627021 2.11086318 11.83332252 2.0625 17.875 C2.05798828 18.94492188 2.05347656 20.01484375 2.04882812 21.1171875 C2.03709749 23.74484986 2.02068228 26.37239538 2 29 C-0.31 29 -2.62 29 -5 29 C-5.33 20.75 -5.66 12.5 -6 4 C-4.02 4 -2.04 4 0 4 C0 2.68 0 1.36 0 0 Z " fill="#447F9A" transform="translate(224,234)"/>
<path d="M0 0 C2.31 0 4.62 0 7 0 C7 8.25 7 16.5 7 25 C4.69 25 2.38 25 0 25 C0 16.75 0 8.5 0 0 Z " fill="#43809C" transform="translate(199,238)"/>
<path d="M0 0 C2.31 0 4.62 0 7 0 C7 8.25 7 16.5 7 25 C4.69 25 2.38 25 0 25 C0 16.75 0 8.5 0 0 Z " fill="#84DAE7" transform="translate(360,212)"/>
<path d="M0 0 C2.31 0 4.62 0 7 0 C7 8.25 7 16.5 7 25 C5.02 25 3.04 25 1 25 C0 24 0 24 -0.11352539 21.68334961 C-0.10828857 20.68311768 -0.10305176 19.68288574 -0.09765625 18.65234375 C-0.09443359 17.57275391 -0.09121094 16.49316406 -0.08789062 15.38085938 C-0.07951172 14.24455078 -0.07113281 13.10824219 -0.0625 11.9375 C-0.05798828 10.79732422 -0.05347656 9.65714844 -0.04882812 8.48242188 C-0.03699747 5.65489649 -0.0205141 2.8274736 0 0 Z " fill="#84DAE7" transform="translate(340,212)"/>
<path d="M0 0 C2.31 0 4.62 0 7 0 C7 1.32 7 2.64 7 4 C7.845625 3.67 8.69125 3.34 9.5625 3 C13.20989216 1.93894046 16.22274664 1.84890987 20 2 C20 3.65 20 5.3 20 7 C13.4 7 6.8 7 0 7 C0 4.69 0 2.38 0 0 Z " fill="#B7CAD4" transform="translate(238,231)"/>
<path d="M0 0 C4.99608185 -0.78885503 4.99608185 -0.78885503 8 0 C10.86903233 2.65452524 13.04727321 5.61934174 15 9 C15 9.66 15 10.32 15 11 C10.00391815 11.78885503 10.00391815 11.78885503 7 11 C4.13096767 8.34547476 1.95272679 5.38065826 0 2 C0 1.34 0 0.68 0 0 Z " fill="#E1EEF1" transform="translate(307,227)"/>
<path d="M0 0 C7.06626005 -0.71860272 7.06626005 -0.71860272 9.64453125 1.265625 C13 5.24963977 13 5.24963977 13 8 C5.93373995 8.71860272 5.93373995 8.71860272 3.35546875 6.734375 C0 2.75036023 0 2.75036023 0 0 Z " fill="#C2E4EA" transform="translate(380,229)"/>
<path d="M0 0 C2.31 0 4.62 0 7 0 C7 3.3 7 6.6 7 10 C4.69 10 2.38 10 0 10 C0 6.7 0 3.4 0 0 Z " fill="#D8E4E9" transform="translate(199,228)"/>
<path d="M0 0 C1.99954746 -0.04254356 4.00041636 -0.04080783 6 0 C7 1 7 1 7.09765625 2.84765625 C7.06510417 4.8984375 7.03255208 6.94921875 7 9 C4.69 9 2.38 9 0 9 C0 6.03 0 3.06 0 0 Z " fill="#D1E9EE" transform="translate(360,228)"/>
<path d="M0 0 C1.98 0 3.96 0 6 0 C7.4783226 2.95664519 7.06032783 5.74229737 7 9 C5.00045254 9.04254356 2.99958364 9.04080783 1 9 C0 8 0 8 -0.09765625 6.15234375 C-0.06510417 4.1015625 -0.03255208 2.05078125 0 0 Z " fill="#D5E1E6" transform="translate(217,229)"/>
<path d="M0 0 C1.98 0 3.96 0 6 0 C6.33 2.97 6.66 5.94 7 9 C5.00045254 9.04254356 2.99958364 9.04080783 1 9 C0 8 0 8 -0.09765625 6.15234375 C-0.06510417 4.1015625 -0.03255208 2.05078125 0 0 Z " fill="#E4ECF0" transform="translate(340,228)"/>
<path d="M0 0 C7.4422658 -0.36601307 7.4422658 -0.36601307 10 1.3125 C11 3 11 3 11 6 C5.67988107 6.34886026 5.67988107 6.34886026 3 6 C1 4.125 1 4.125 0 2 C0 1.34 0 0.68 0 0 Z " fill="#E1E6EA" transform="translate(276,231)"/>
<path d="M0 0 C2.31 0 4.62 0 7 0 C7 1.32 7 2.64 7 4 C7.99 4.33 8.98 4.66 10 5 C6.7 5 3.4 5 0 5 C0 3.35 0 1.7 0 0 Z " fill="#E6F1F4" transform="translate(238,231)"/>
<path d="M0 0 C5.37305699 -0.35233161 5.37305699 -0.35233161 8 0 C10 2 10 2 11 4 C6.545 4.495 6.545 4.495 2 5 C1.34 3.35 0.68 1.7 0 0 Z " fill="#A9DEE7" transform="translate(307,227)"/>
<path d="M0 0 C5.37305699 -0.35233161 5.37305699 -0.35233161 8 0 C10 2 10 2 11 4 C6.545 4.495 6.545 4.495 2 5 C1.34 3.35 0.68 1.7 0 0 Z " fill="#A9DFE7" transform="translate(273,227)"/>
<path d="M0 0 C2.64 0 5.28 0 8 0 C8.66 1.32 9.32 2.64 10 4 C7.36 4 4.72 4 2 4 C1.34 2.68 0.68 1.36 0 0 Z " fill="#E5EAEE" transform="translate(383,233)"/>
<path d="M0 0 C2.31 0 4.62 0 7 0 C7 1.32 7 2.64 7 4 C4.69 4 2.38 4 0 4 C0 2.68 0 1.36 0 0 Z " fill="#BBE8EF" transform="translate(199,228)"/>
<path d="M0 0 C2.31 0 4.62 0 7 0 C7 1.32 7 2.64 7 4 C4.69 4 2.38 4 0 4 C0 2.68 0 1.36 0 0 Z " fill="#AEE6EE" transform="translate(238,227)"/>
<path d="M0 0 C1.98 0 3.96 0 6 0 C6.33 1.65 6.66 3.3 7 5 C4.69 4.67 2.38 4.34 0 4 C0 2.68 0 1.36 0 0 Z " fill="#BCE8EF" transform="translate(340,228)"/>
<path d="M0 0 C3.625 -0.1875 3.625 -0.1875 7 0 C7 0.99 7 1.98 7 3 C4.03 3 1.06 3 -2 3 C-1.34 2.01 -0.68 1.02 0 0 Z " fill="#E5E8EA" transform="translate(251,233)"/>
<path d="M0 0 C1.98 0 3.96 0 6 0 C6.33 0.99 6.66 1.98 7 3 C5.02 3 3.04 3 1 3 C0.67 4.32 0.34 5.64 0 7 C0 4.69 0 2.38 0 0 Z " fill="#95D5DF" transform="translate(216,226)"/>
<path d="M0 0 C0.66 1.32 1.32 2.64 2 4 C0.72125 4.061875 -0.5575 4.12375 -1.875 4.1875 C-2.59429687 4.22230469 -3.31359375 4.25710937 -4.0546875 4.29296875 C-4.69664062 4.19628906 -5.33859375 4.09960938 -6 4 C-6.66 3.01 -7.32 2.02 -8 1 C-5.36 1.33 -2.72 1.66 0 2 C0 1.34 0 0.68 0 0 Z " fill="#B9C9D3" transform="translate(320,234)"/>
<path d="M0 0 C2.64 0 5.28 0 8 0 C8.33 0.66 8.66 1.32 9 2 C6.36 2.66 3.72 3.32 1 4 C0.67 2.68 0.34 1.36 0 0 Z " fill="#D1E8ED" transform="translate(276,231)"/>
<path d="M0 0 C1.98 0 3.96 0 6 0 C6.33 1.32 6.66 2.64 7 4 C4.69 3.67 2.38 3.34 0 3 C0 2.01 0 1.02 0 0 Z " fill="#BFE6EC" transform="translate(217,229)"/>
<path d="M0 0 C2.97 0 5.94 0 9 0 C9.33 0.66 9.66 1.32 10 2 C5.545 2.495 5.545 2.495 1 3 C0.67 2.01 0.34 1.02 0 0 Z " fill="#98D6E0" transform="translate(378,227)"/>
<path d="M0 0 C0.66 1.32 1.32 2.64 2 4 C-0.64 4 -3.28 4 -6 4 C-6.33 3.34 -6.66 2.68 -7 2 C-4.69 2 -2.38 2 0 2 C0 1.34 0 0.68 0 0 Z " fill="#8FAEBE" transform="translate(287,235)"/>
</svg>
